<svg width="203" height="65" viewBox="0 0 203 65" fill="none" xmlns="http://www.w3.org/2000/svg">
<path fill-rule="evenodd" clip-rule="evenodd" d="M133.34 16.72C135.02 18.64 138.71 18.55 140.9 19.96C137.94 20.72 134.22 20.72 131.54 21.76C132.17 20.11 132.74 18.39 133.34 16.72Z" fill="black"/>
<path fill-rule="evenodd" clip-rule="evenodd" d="M112.47 23.38C111.59 27.42 109.73 32.04 108.69 36.52C114.41 36.6 120.44 35.44 126.32 35.08C127.12 34.02 127.51 32.55 127.94 31.12C129.12 32.79 129.95 35.91 128.84 38.32C119.91 38.2 113.49 45.51 104.73 45.52C100.81 45.52 97.47 43.27 99.33 38.86C101.96 32.64 108.46 28.29 112.47 23.38Z" fill="black"/>
<path fill-rule="evenodd" clip-rule="evenodd" d="M202.44 10.24C202.66 11.11 201.69 11.94 201.19 12.58C196.95 17.9 192.26 24.2 186.61 28.23C187.02 30.35 186.8 33.16 186.07 34.71C187.55 36.6 189.12 38.39 190.03 40.83C188.83 47.21 186.04 52.17 181.58 55.41C177.22 58.57 171.34 59.81 164.66 61.35C151.75 64.33 130.51 67.26 120.93 59.55C110.56 65.63 89.6 66.44 79.9 59.19C73 67.92 45.81 67.15 49.85 49.83C44.81 53.65 37.35 58.91 30.23 61.89C21.98 65.33 6.34999 64.95 7.90999 53.25C8.09999 51.86 8.68999 51.07 9.34999 49.83C6.93999 45.62 5.40999 42.69 3.94999 39.03C2.54999 35.52 0.419989 31.52 0.169989 26.62C-0.350011 16.19 7.77999 9.56997 15.83 6.46997C19.94 4.87997 23.28 2.59 27.35 1.43C33.43 -0.300002 38.65 3.04001 39.04 8.63001C46.11 6.53001 54.72 4.22001 64.06 5.57001C71.49 -0.209988 86.01 3.35999 95.55 6.10999C97.71 6.72999 100.61 8.34002 102.21 8.27002C103.56 8.21002 106.01 6.38 107.43 5.75C114.13 2.78 122.88 -0.379995 132.45 1.25C134.26 1.56 135.92 2.52001 137.85 2.69001C139.16 2.81001 140.76 2.40002 142.17 2.33002C164.52 1.23002 183.14 7.22999 202.44 10.24ZM139.82 9.52002C137.54 9.80002 135.91 12.29 134.42 13.12C134.53 13.11 134.63 13.09 134.6 12.94C134.87 11.71 135.4 10.73 135.5 9.34003C123.52 5.12003 111.87 11.29 103.29 16C96.43 19.76 90.31 24.19 86.01 28.6C87.56 25.95 89.21 23.34 91.05 20.86C92.91 18.35 94.99 16.08 96.63 13.84C93.04 12.9 89.45 11.91 85.83 11.14C80.69 10.05 73.54 8.22998 69.28 10.6C68.05 11.28 67.04 12.97 65.86 13.12C64.89 13.25 63.28 12.53 62.08 12.4C57.68 11.91 53.64 12.32 49.66 13.12C45.94 13.87 38.07 15.19 37.06 18.7C36.41 20.95 37.85 23.14 37.6 25.36C37.35 27.55 35.25 30.45 34.18 32.2C32.87 34.34 31.54 36.24 29.32 37.24C27.97 30.54 29.44 24.57 30.58 18.89C31.29 15.39 32.71 11.8 31.48 8.27002C28.05 7.79002 25.16 10.51 21.76 11.87C15.38 14.42 8.26999 16.75 7.35999 24.11C6.84999 28.25 8.40999 30.89 9.51999 33.83C11.9 40.15 14.84 45.5 18.34 50.39C17.39 52.14 15.14 52.6 14.92 55.06C15.94 56.5 18.05 56.69 20.14 56.68C26.18 56.67 31.13 53.63 35.61 51.1C45.38 45.61 51.94 37.15 58.83 29.15C60.04 27.74 61.04 26.05 62.61 25.19C64.16 32.3 61.15 36.1 59.01 41.92C58.19 44.16 55.58 51.19 56.85 54.51C58.24 58.17 70.09 58.33 73.23 55.96C74.81 54.76 75.44 52.06 76.29 50.38C77.37 48.22 78.31 46.35 79.17 44.44C79.22 52.32 85.07 54.64 91.41 56.32C104.87 59.88 118.44 53.52 125.78 49.12C124.86 54.96 127.13 55.55 131.72 56.5C143.59 58.95 155.54 56.12 165.19 53.8C174.04 51.67 181.16 50.16 182.47 41.38C181.05 40.16 177.51 40.31 175.09 40.66C167.95 41.7 161.04 45.31 151.52 44.62C149.78 44.49 146.03 43.89 145.76 42.82C145.34 41.16 148.32 40 150.81 39.58C157.95 38.37 168.27 39.59 174.02 37.42C176.78 36.38 180.11 33.37 179.78 30.04C179.56 27.79 176.63 26.62 173.84 26.44C165.97 25.95 160.34 30.54 152.07 28.96C153.1 27.65 153.29 25.5 154.59 24.46C160.63 24.33 166.51 25.53 172.23 25.18C180.18 24.68 184.67 21.33 188.43 16.9C188.83 16.42 189.84 15.91 189.51 15.1C175.68 13 156.85 7.43002 139.82 9.52002Z" fill="black"/>
</svg>
