<svg xmlns="http://www.w3.org/2000/svg" viewBox="0 0 67.13 67.13"><defs><style>.cls-1{fill:#026c9e;}.cls-1,.cls-2{fill-rule:evenodd;}.cls-2{fill:#fff;}</style></defs><g id="Layer_2" data-name="Layer 2"><g id="Layer_1-2" data-name="Layer 1"><path class="cls-1" d="M33.57,0A33.57,33.57,0,1,1,0,33.57,33.57,33.57,0,0,1,33.57,0Z"/><path class="cls-2" d="M18.23,48.61h7.19V27H18.23ZM43.05,26.46A7.11,7.11,0,0,0,36.58,30V27H29.39c.09,2,0,21.65,0,21.65h7.19V36.52a4.89,4.89,0,0,1,.23-1.75,3.94,3.94,0,0,1,3.69-2.64c2.6,0,3.64,2,3.64,4.9V48.61h7.19V36.2C51.33,29.55,47.78,26.46,43.05,26.46ZM21.87,16.52a3.75,3.75,0,1,0-.1,7.49h.05a3.76,3.76,0,1,0,.05-7.49Z"/></g></g></svg>