<svg xmlns="http://www.w3.org/2000/svg" viewBox="0 0 84.16 57.82"><defs><style>.cls-1{fill:#f37230;fill-rule:evenodd;}</style></defs><g id="Layer_2" data-name="Layer 2"><g id="Layer_1-2" data-name="Layer 1"><path class="cls-1" d="M72.24,26.78a18.38,18.38,0,0,0,.87-6.21A20.46,20.46,0,0,0,52.77,0,20.79,20.79,0,0,0,33.66,13.3a15.2,15.2,0,0,0-9.81-3.55A15.36,15.36,0,0,0,8.59,25.18a13.18,13.18,0,0,0,.18,2.66A16,16,0,0,0,0,42,15.73,15.73,0,0,0,15.6,57.82h53a15.76,15.76,0,0,0,3.69-31Zm-20,17.91-2.46,2.49-7.71-8L34.37,47l-2.46-2.48,7.71-7.81-7.71-7.8,2.46-2.48,7.71,7.8,7.71-7.8,2.46,2.48-7.72,7.8Z"/></g></g></svg>