<svg xmlns="http://www.w3.org/2000/svg" viewBox="0 0 67.13 67.13"><defs><style>.cls-1{fill:#27a6df;}.cls-2{fill:#fff;}</style></defs><g id="Layer_2" data-name="Layer 2"><g id="Layer_1-2" data-name="Layer 1"><circle class="cls-1" cx="33.57" cy="33.57" r="33.57" transform="translate(-1.49 1.56) rotate(-2.6)"/><path class="cls-2" d="M49.05,26.72c0,.3,0,.59,0,.89,0,9.1-6.92,19.6-19.57,19.6A19.39,19.39,0,0,1,19,44.11a12.67,12.67,0,0,0,1.64.1,13.76,13.76,0,0,0,8.54-3,6.86,6.86,0,0,1-6.42-4.78A6.88,6.88,0,0,0,24,36.6a6.7,6.7,0,0,0,1.81-.24,6.9,6.9,0,0,1-5.52-6.75v-.09a6.74,6.74,0,0,0,3.12.86,6.9,6.9,0,0,1-2.13-9.19,19.51,19.51,0,0,0,14.18,7.19,6.75,6.75,0,0,1-.18-1.57,6.88,6.88,0,0,1,11.9-4.71,13.8,13.8,0,0,0,4.36-1.67,6.87,6.87,0,0,1-3,3.81,13.44,13.44,0,0,0,3.95-1.08A14,14,0,0,1,49.05,26.72Z"/></g></g></svg>