<svg xmlns="http://www.w3.org/2000/svg" viewBox="0 0 90.45 60.14"><defs><style>.cls-1{fill:#95c450;fill-rule:evenodd;}</style></defs><g id="Layer_2" data-name="Layer 2"><g id="Layer_1-2" data-name="Layer 1"><path class="cls-1" d="M58.63,25.06l-19.12,19-9.6-9.54a2.26,2.26,0,0,1,0-3.22,2.29,2.29,0,0,1,3.23,0l6.37,6.33L55.4,21.84a2.29,2.29,0,0,1,3.23,0,2.26,2.26,0,0,1,0,3.22m16,1.26a18.37,18.37,0,0,0-2.57,0A23.84,23.84,0,0,0,28.36,10.89,12.16,12.16,0,0,0,11.27,23.36a19.26,19.26,0,0,0,8.52,36.78H73.42a17,17,0,0,0,17-17.67A17.15,17.15,0,0,0,74.66,26.32"/></g></g></svg>